<svg width="92" height="84" viewBox="0 0 92 84" fill="none" xmlns="http://www.w3.org/2000/svg">
<path d="M20.5949 7.148C23.9057 4.48405 28.1283 3.01279 32.5 3C41.4106 3 48.8074 9.18182 49.6124 17.1533C54.8859 17.8487 59 21.9689 59 27.0256C59 32.5769 54.0379 37 48.0257 37H18.5246C11.6577 37 6 31.9495 6 25.6193C6 20.17 10.1936 15.6573 15.7454 14.5136C16.2191 11.8462 18.0575 9.188 20.5949 7.148Z" fill="#FF7A03"/>
<path d="M63.5 11C64.163 11 64.7989 11.2581 65.2678 11.7176C65.7366 12.1771 66 12.8002 66 13.45V15.9H71.1C72.2237 15.901 73.3328 16.1494 74.3454 16.6269C75.3579 17.1044 76.2481 17.7988 76.95 18.6587L84.355 27.7237C85.4204 29.028 86.0007 30.6491 86 32.3199V42.85C86 44.7993 85.2098 46.6688 83.8033 48.0472C82.3968 49.4256 80.4891 50.2 78.5 50.2H76C76 52.7991 74.9464 55.2918 73.0711 57.1296C71.1957 58.9675 68.6522 60 66 60C63.3478 60 60.8043 58.9675 58.9289 57.1296C57.0536 55.2918 56 52.7991 56 50.2H31C31 52.7991 29.9464 55.2918 28.0711 57.1296C26.1957 58.9675 23.6522 60 21 60C18.3478 60 15.8043 58.9675 13.9289 57.1296C12.0536 55.2918 11 52.7991 11 50.2C9.67392 50.2 8.40215 49.6838 7.46447 48.7648C6.52678 47.8459 6 46.5996 6 45.3V40.4H61V13.45C61 12.8002 61.2634 12.1771 61.7322 11.7176C62.2011 11.2581 62.837 11 63.5 11ZM21 45.3C19.6739 45.3 18.4021 45.8163 17.4645 46.7352C16.5268 47.6541 16 48.9004 16 50.2C16 51.4996 16.5268 52.7459 17.4645 53.6648C18.4021 54.5838 19.6739 55.1 21 55.1C22.3261 55.1 23.5979 54.5838 24.5355 53.6648C25.4732 52.7459 26 51.4996 26 50.2C26 48.9004 25.4732 47.6541 24.5355 46.7352C23.5979 45.8163 22.3261 45.3 21 45.3ZM66 45.3C64.6739 45.3 63.4021 45.8163 62.4645 46.7352C61.5268 47.6541 61 48.9004 61 50.2C61 51.4996 61.5268 52.7459 62.4645 53.6648C63.4021 54.5838 64.6739 55.1 66 55.1C67.3261 55.1 68.5979 54.5838 69.5355 53.6648C70.4732 52.7459 71 51.4996 71 50.2C71 48.9004 70.4732 47.6541 69.5355 46.7352C68.5979 45.8163 67.3261 45.3 66 45.3ZM74.66 45.3H78.5C79.163 45.3 79.7989 45.0419 80.2678 44.5824C80.7366 44.123 81 43.4998 81 42.85V32.315C80.999 31.759 80.805 31.2199 80.45 30.7862L73.05 21.7212C72.8162 21.4343 72.5195 21.2025 72.182 21.043C71.8445 20.8836 71.4747 20.8005 71.1 20.8H66V40.4C67.7553 40.4 69.4797 40.8529 70.9999 41.713C72.52 42.5731 73.7823 43.8102 74.66 45.3Z" fill="black"/>
<path d="M32 0C33.6569 0 35 1.34315 35 3C35 4.65685 33.6569 6 32 6C30.3431 6 29 4.65685 29 3C29 1.34315 30.3431 0 32 0Z" fill="black"/>
<path d="M5.26 76.3C3.78 76.3 2.63333 75.9067 1.82 75.12C1.02 74.3333 0.62 73.3133 0.62 72.06C0.62 70.9133 0.9 69.7933 1.46 68.7C2.03333 67.6067 2.75333 66.6 3.62 65.68C4.32667 64.9333 5.13333 64.2867 6.04 63.74C6.96 63.1933 7.92 62.7667 8.92 62.46C9.93333 62.1533 10.92 62 11.88 62C12.64 62 13.3267 62.1067 13.94 62.32C14.5533 62.52 15.04 62.84 15.4 63.28C15.76 63.72 15.94 64.2933 15.94 65C15.94 65.6267 15.7867 66.2133 15.48 66.76C15.1867 67.2933 14.7867 67.76 14.28 68.16C13.7867 68.56 13.24 68.8733 12.64 69.1C12.04 69.3267 11.4333 69.44 10.82 69.44C10.02 69.44 9.34667 69.26 8.8 68.9C8.25333 68.5267 7.98 68.06 7.98 67.5C7.98 66.78 8.44 66.0733 9.36 65.38C9.52 65.26 9.64667 65.2 9.74 65.2C9.80667 65.2 9.84 65.2267 9.84 65.28C9.84 65.4133 9.73333 65.52 9.52 65.6C8.77333 66.2 8.4 66.8067 8.4 67.42C8.4 67.86 8.6 68.2333 9 68.54C9.4 68.8333 9.9 68.98 10.5 68.98C11.0333 68.98 11.5667 68.8667 12.1 68.64C12.6467 68.4133 13.1467 68.1067 13.6 67.72C14.0533 67.3333 14.4133 66.9 14.68 66.42C14.96 65.9267 15.1 65.4133 15.1 64.88C15.1 64.0133 14.8067 63.38 14.22 62.98C13.6333 62.58 12.8867 62.38 11.98 62.38C10.9533 62.38 9.93333 62.5733 8.92 62.96C7.92 63.3467 6.98 63.88 6.1 64.56C5.22 65.24 4.43333 66.02 3.74 66.9C2.35333 68.6467 1.66 70.2867 1.66 71.82C1.66 72.6333 1.84667 73.3267 2.22 73.9C2.59333 74.46 3.10667 74.8867 3.76 75.18C4.42667 75.4733 5.18667 75.62 6.04 75.62C7.30667 75.62 8.53333 75.3467 9.72 74.8C10.9067 74.24 11.92 73.4933 12.76 72.56C12.9867 72.32 13.1533 72.2 13.26 72.2C13.34 72.2 13.38 72.26 13.38 72.38C13.38 72.54 13.3067 72.6933 13.16 72.84C12.7067 73.32 12.1667 73.7667 11.54 74.18C10.9133 74.5933 10.24 74.96 9.52 75.28C8.81333 75.6 8.09333 75.8467 7.36 76.02C6.62667 76.2067 5.92667 76.3 5.26 76.3ZM16.9717 75.06C16.5397 75.06 16.2157 74.988 15.9997 74.844C15.7917 74.7 15.6557 74.512 15.5917 74.28C15.5357 74.04 15.5077 73.728 15.5077 73.344V66H16.3357V73.236C16.3357 73.548 16.3477 73.78 16.3717 73.932C16.4037 74.084 16.4797 74.204 16.5997 74.292C16.7277 74.38 16.9277 74.424 17.1997 74.424C17.2797 74.424 17.3677 74.42 17.4637 74.412C17.5597 74.396 17.6277 74.388 17.6677 74.388V74.988C17.4277 75.036 17.1957 75.06 16.9717 75.06ZM21.7443 75.072C21.1123 75.072 20.5763 74.916 20.1363 74.604C19.6963 74.292 19.3643 73.888 19.1403 73.392C18.9243 72.888 18.8163 72.356 18.8163 71.796C18.8163 71.228 18.9243 70.696 19.1403 70.2C19.3643 69.696 19.6963 69.288 20.1363 68.976C20.5763 68.664 21.1123 68.508 21.7443 68.508C22.3763 68.508 22.9123 68.664 23.3523 68.976C23.7923 69.288 24.1203 69.696 24.3363 70.2C24.5603 70.696 24.6723 71.224 24.6723 71.784C24.6723 72.352 24.5603 72.888 24.3363 73.392C24.1203 73.888 23.7923 74.292 23.3523 74.604C22.9123 74.916 22.3763 75.072 21.7443 75.072ZM21.7443 74.34C22.1683 74.34 22.5363 74.228 22.8483 74.004C23.1683 73.772 23.4123 73.464 23.5803 73.08C23.7563 72.688 23.8443 72.256 23.8443 71.784C23.8443 71.304 23.7603 70.872 23.5923 70.488C23.4243 70.096 23.1803 69.788 22.8603 69.564C22.5403 69.34 22.1683 69.228 21.7443 69.228C21.3203 69.228 20.9483 69.34 20.6283 69.564C20.3083 69.788 20.0643 70.096 19.8963 70.488C19.7283 70.88 19.6443 71.312 19.6443 71.784C19.6443 72.264 19.7283 72.7 19.8963 73.092C20.0643 73.476 20.3043 73.78 20.6163 74.004C20.9363 74.228 21.3123 74.34 21.7443 74.34ZM31.7121 75H30.8841V73.74H30.8121C30.6441 74.124 30.3761 74.448 30.0081 74.712C29.6481 74.976 29.2041 75.108 28.6761 75.108C28.1561 75.108 27.7161 74.984 27.3561 74.736C26.9961 74.48 26.7281 74.144 26.5521 73.728C26.3761 73.312 26.2881 72.856 26.2881 72.36V68.688H27.1161V72.264C27.1161 72.944 27.2881 73.46 27.6321 73.812C27.9841 74.164 28.4321 74.34 28.9761 74.34C29.5521 74.34 30.0121 74.148 30.3561 73.764C30.7081 73.38 30.8841 72.88 30.8841 72.264V68.688H31.7121V75ZM35.9178 75.072C35.3578 75.072 34.8738 74.928 34.4658 74.64C34.0578 74.352 33.7458 73.96 33.5298 73.464C33.3218 72.968 33.2178 72.412 33.2178 71.796C33.2178 71.172 33.3218 70.612 33.5298 70.116C33.7458 69.612 34.0578 69.216 34.4658 68.928C34.8818 68.64 35.3778 68.496 35.9538 68.496C36.5218 68.496 36.9818 68.636 37.3338 68.916C37.6938 69.188 37.9698 69.52 38.1618 69.912H38.2458V66H39.0738V75H38.2458V73.632H38.1618C37.9618 74.04 37.6778 74.384 37.3098 74.664C36.9418 74.936 36.4778 75.072 35.9178 75.072ZM36.1458 74.34C36.8098 74.34 37.3218 74.1 37.6818 73.62C38.0418 73.132 38.2218 72.524 38.2218 71.796C38.2218 71.068 38.0418 70.46 37.6818 69.972C37.3218 69.484 36.8098 69.24 36.1458 69.24C35.4658 69.24 34.9498 69.484 34.5978 69.972C34.2458 70.452 34.0698 71.056 34.0698 71.784C34.0698 72.52 34.2458 73.132 34.5978 73.62C34.9498 74.1 35.4658 74.34 36.1458 74.34ZM57.1222 76.806C56.7582 76.806 56.4362 76.7407 56.1562 76.61C55.7548 76.414 55.3582 76.1387 54.9662 75.784C54.5742 75.4387 54.2008 75.0467 53.8462 74.608C53.4915 74.1693 53.1742 73.7073 52.8942 73.222C52.6142 72.7367 52.3808 72.2653 52.1942 71.808C51.6808 72.1067 51.2562 72.27 50.9202 72.298C50.6588 72.634 50.3275 73.0167 49.9262 73.446C49.5248 73.8753 49.0768 74.2907 48.5822 74.692C48.0968 75.0933 47.5742 75.42 47.0142 75.672C46.4635 75.9333 45.9035 76.064 45.3342 76.064C44.6062 76.064 44.0275 75.8773 43.5982 75.504C43.1782 75.14 42.9682 74.5613 42.9682 73.768C42.9682 73.3293 43.0755 72.8953 43.2902 72.466C43.5048 72.0367 43.7942 71.6493 44.1582 71.304C44.5222 70.9587 44.9188 70.6973 45.3482 70.52C45.8802 70.2867 46.4355 70.17 47.0142 70.17C47.3408 70.17 47.6022 70.2587 47.7982 70.436C47.9942 70.604 48.0922 70.8233 48.0922 71.094C48.0922 71.2153 48.0735 71.2947 48.0362 71.332C48.0268 71.3413 48.0128 71.346 47.9942 71.346C47.9662 71.346 47.9288 71.3087 47.8822 71.234C47.7328 70.9447 47.5835 70.7533 47.4342 70.66C47.2848 70.5667 47.0748 70.52 46.8042 70.52C46.3935 70.52 45.9922 70.6227 45.6002 70.828C45.2175 71.024 44.8675 71.29 44.5502 71.626C44.2422 71.962 43.9948 72.34 43.8082 72.76C43.6215 73.1707 43.5282 73.586 43.5282 74.006C43.5282 75.014 44.0975 75.5833 45.2362 75.714C45.6655 75.7513 46.2302 75.5693 46.9302 75.168C47.9755 74.5707 49.0908 73.544 50.2762 72.088C50.0615 71.892 49.9542 71.612 49.9542 71.248C49.9542 70.8467 50.0895 70.4827 50.3602 70.156C50.6588 69.8013 51.0555 69.624 51.5502 69.624C51.6902 69.624 51.8208 69.638 51.9422 69.666C52.1942 69.2367 52.4368 68.8027 52.6702 68.364C52.9035 67.9253 53.1275 67.482 53.3422 67.034C53.7528 66.1847 53.9582 65.69 53.9582 65.55C53.9582 65.5313 53.9535 65.522 53.9442 65.522C53.9162 65.5033 53.8042 65.5407 53.6082 65.634C53.4122 65.718 53.1835 65.8253 52.9222 65.956C52.6608 66.0773 52.4182 66.1987 52.1942 66.32C51.9702 66.4413 51.8162 66.53 51.7322 66.586C51.4148 66.7913 51.0975 67.0527 50.7802 67.37C50.3695 67.7807 50.1642 68.098 50.1642 68.322C50.1642 68.4247 50.2108 68.5087 50.3042 68.574C50.5002 68.714 50.7895 68.784 51.1722 68.784C51.2188 68.8027 51.2422 68.8213 51.2422 68.84C51.2422 68.8867 51.0928 68.9333 50.7942 68.98C50.4955 69.0267 50.2622 69.0407 50.0942 69.022C49.8608 68.966 49.7442 68.8307 49.7442 68.616C49.7442 68.2893 49.9448 67.8973 50.3462 67.44C50.7475 66.9827 51.1862 66.6233 51.6622 66.362C53.0528 65.6153 53.9348 65.242 54.3082 65.242C54.4015 65.242 54.4808 65.2607 54.5462 65.298C54.5835 65.326 54.6022 65.3773 54.6022 65.452C54.6022 66.0213 53.8182 67.65 52.2502 70.338C52.2782 70.45 52.3155 70.5807 52.3622 70.73C52.4182 70.87 52.4835 71.0333 52.5582 71.22L56.7302 68.042C57.4302 67.51 58.0695 67.0293 58.6482 66.6C59.2268 66.1707 59.7775 65.8067 60.3002 65.508C60.8322 65.2093 61.3642 64.9807 61.8962 64.822C62.4375 64.6633 63.0208 64.584 63.6462 64.584C63.9915 64.584 64.3088 64.64 64.5982 64.752C64.7755 64.8173 64.8642 64.948 64.8642 65.144C64.8642 65.3027 64.8175 65.382 64.7242 65.382C64.6775 65.382 64.6308 65.354 64.5842 65.298C64.5002 65.2047 64.3228 65.158 64.0522 65.158C63.9028 65.158 63.7068 65.1767 63.4642 65.214C63.2215 65.2513 62.9275 65.3073 62.5822 65.382C62.0502 65.5033 61.4855 65.6947 60.8882 65.956C60.3002 66.2173 59.6795 66.5487 59.0262 66.95C58.2048 67.4633 57.0848 68.2613 55.6662 69.344C54.9475 69.8947 54.3362 70.352 53.8322 70.716C53.3375 71.0707 52.9548 71.3367 52.6842 71.514C52.8895 71.9433 53.1368 72.3867 53.4262 72.844C53.7248 73.3013 54.0468 73.7447 54.3922 74.174C54.7375 74.594 55.1015 74.9673 55.4842 75.294C55.8668 75.63 56.2448 75.882 56.6182 76.05C56.9822 76.218 57.3135 76.302 57.6122 76.302C58.0602 76.302 58.2842 76.1293 58.2842 75.784C58.2842 75.7653 58.2842 75.742 58.2842 75.714C58.2842 75.686 58.2795 75.6627 58.2702 75.644C58.2702 75.6253 58.2655 75.6067 58.2562 75.588C58.2562 75.5787 58.2562 75.5693 58.2562 75.56C58.2562 75.4667 58.2795 75.3827 58.3262 75.308C58.3728 75.2427 58.4242 75.21 58.4802 75.21C58.6015 75.21 58.6808 75.3547 58.7182 75.644C58.7275 75.6627 58.7322 75.686 58.7322 75.714C58.7322 75.742 58.7322 75.7653 58.7322 75.784C58.7322 76.008 58.6528 76.1947 58.4942 76.344C58.3355 76.5027 58.1348 76.6193 57.8922 76.694C57.6495 76.7687 57.3928 76.806 57.1222 76.806ZM50.7242 71.514L50.8222 71.374C50.8968 71.262 50.9948 71.1173 51.1162 70.94C51.2468 70.7627 51.3915 70.5527 51.5502 70.31C51.4382 70.2633 51.3402 70.24 51.2562 70.24C51.0602 70.24 50.8968 70.324 50.7662 70.492C50.6355 70.66 50.5702 70.8467 50.5702 71.052C50.5702 71.2293 50.6215 71.3833 50.7242 71.514ZM51.3402 71.752C51.4335 71.752 51.4942 71.7473 51.5222 71.738C51.6435 71.7193 51.8302 71.6447 52.0822 71.514C52.0448 71.402 52.0075 71.2993 51.9702 71.206C51.9422 71.1127 51.9188 71.0287 51.9002 70.954C51.8348 71.0567 51.7555 71.178 51.6622 71.318C51.5688 71.4487 51.4615 71.5933 51.3402 71.752ZM56.7778 68.688H57.6058V75H56.7778V68.688ZM57.1738 67.488C57.0058 67.488 56.8658 67.432 56.7538 67.32C56.6418 67.2 56.5858 67.056 56.5858 66.888C56.5858 66.728 56.6418 66.592 56.7538 66.48C56.8658 66.36 57.0058 66.3 57.1738 66.3C57.3418 66.3 57.4818 66.36 57.5938 66.48C57.7058 66.592 57.7618 66.728 57.7618 66.888C57.7618 67.056 57.7058 67.2 57.5938 67.32C57.4818 67.432 57.3418 67.488 57.1738 67.488ZM61.0769 69.36V73.308C61.0769 73.612 61.0889 73.836 61.1129 73.98C61.1449 74.116 61.2209 74.224 61.3409 74.304C61.4609 74.384 61.6569 74.424 61.9289 74.424C62.1369 74.424 62.3609 74.396 62.6009 74.34V74.94C62.5209 74.972 62.3969 75 62.2289 75.024C62.0689 75.048 61.8969 75.06 61.7129 75.06C61.2889 75.06 60.9689 75 60.7529 74.88C60.5449 74.752 60.4049 74.58 60.3329 74.364C60.2689 74.148 60.2369 73.856 60.2369 73.488L60.2489 69.36H59.0249V68.688H60.2489V66.6H61.0769V68.688H62.6009V69.36H61.0769ZM66.8584 75.084C66.2024 75.084 65.6504 74.928 65.2024 74.616C64.7624 74.304 64.4344 73.896 64.2184 73.392C64.0024 72.888 63.8944 72.352 63.8944 71.784C63.8944 71.224 64.0024 70.696 64.2184 70.2C64.4344 69.696 64.7624 69.288 65.2024 68.976C65.6504 68.656 66.2024 68.496 66.8584 68.496C67.4104 68.496 67.8824 68.608 68.2744 68.832C68.6664 69.056 68.9704 69.352 69.1864 69.72C69.4024 70.088 69.5384 70.484 69.5944 70.908H68.7904C68.7104 70.412 68.5064 70.008 68.1784 69.696C67.8504 69.384 67.4104 69.228 66.8584 69.228C66.1704 69.228 65.6424 69.472 65.2744 69.96C64.9144 70.44 64.7344 71.048 64.7344 71.784C64.7344 72.528 64.9144 73.144 65.2744 73.632C65.6424 74.112 66.1704 74.352 66.8584 74.352C67.4104 74.352 67.8504 74.2 68.1784 73.896C68.5064 73.584 68.7104 73.176 68.7904 72.672H69.5944C69.5384 73.096 69.4024 73.492 69.1864 73.86C68.9704 74.228 68.6664 74.524 68.2744 74.748C67.8824 74.972 67.4104 75.084 66.8584 75.084ZM71.1202 66.024H71.9602V69.876H72.0442C72.2122 69.492 72.4802 69.168 72.8482 68.904C73.2242 68.632 73.6802 68.496 74.2162 68.496C74.7442 68.496 75.1922 68.62 75.5602 68.868C75.9282 69.116 76.2042 69.452 76.3882 69.876C76.5722 70.292 76.6642 70.752 76.6642 71.256V75H75.8482V71.34C75.8482 70.66 75.6682 70.148 75.3082 69.804C74.9482 69.452 74.4802 69.276 73.9042 69.276C73.5522 69.276 73.2282 69.356 72.9322 69.516C72.6362 69.676 72.4002 69.912 72.2242 70.224C72.0482 70.536 71.9602 70.908 71.9602 71.34V75H71.1202V66.024ZM81.1778 75.072C80.5378 75.072 79.9978 74.916 79.5578 74.604C79.1178 74.292 78.7898 73.884 78.5738 73.38C78.3578 72.876 78.2498 72.344 78.2498 71.784C78.2498 71.224 78.3578 70.692 78.5738 70.188C78.7898 69.684 79.1178 69.276 79.5578 68.964C79.9978 68.652 80.5378 68.496 81.1778 68.496C82.0178 68.496 82.6898 68.78 83.1938 69.348C83.6978 69.916 83.9498 70.736 83.9498 71.808V72.036H79.0778V72.12C79.0778 72.504 79.1618 72.872 79.3298 73.224C79.5058 73.568 79.7538 73.844 80.0738 74.052C80.3938 74.26 80.7578 74.364 81.1658 74.364C81.6138 74.364 81.9978 74.252 82.3178 74.028C82.6378 73.796 82.8778 73.484 83.0378 73.092H83.8538C83.6778 73.66 83.3658 74.132 82.9178 74.508C82.4698 74.884 81.8898 75.072 81.1778 75.072ZM83.1218 71.424C83.0898 70.632 82.8978 70.06 82.5458 69.708C82.1938 69.356 81.7378 69.18 81.1778 69.18C80.5538 69.18 80.0578 69.388 79.6898 69.804C79.3298 70.22 79.1338 70.76 79.1018 71.424H83.1218ZM85.5694 68.688H86.4094V69.876H86.4934C86.6614 69.492 86.9294 69.168 87.2974 68.904C87.6734 68.632 88.1294 68.496 88.6654 68.496C89.1934 68.496 89.6414 68.62 90.0094 68.868C90.3774 69.116 90.6534 69.452 90.8374 69.876C91.0214 70.292 91.1134 70.752 91.1134 71.256V75H90.2974V71.34C90.2974 70.668 90.1174 70.156 89.7574 69.804C89.3974 69.452 88.9374 69.276 88.3774 69.276C87.7854 69.276 87.3094 69.468 86.9494 69.852C86.5894 70.228 86.4094 70.724 86.4094 71.34V75H85.5694V68.688Z" fill="black"/>
<path d="M29.9225 3.64487C30.0957 4.02111 31.0079 4.79644 30.8449 4.87148C30.682 4.94653 29.9411 4.46199 29.6274 3.78075C29.3137 3.0995 29.7223 2.08567 29.8852 2.01063C30.0482 1.93559 29.7492 3.26863 29.9225 3.64487Z" fill="white" fill-opacity="0.87"/>
</svg>
